<svg version="1.1" id="Layer_1" xmlns="http://www.w3.org/2000/svg" xmlns:xlink="http://www.w3.org/1999/xlink" x="0px" y="0px"
     width="100%" viewBox="0 0 500 500" enable-background="new 0 0 500 500" xml:space="preserve">
<path fill="#FEFFFF" opacity="1.000000" stroke="none"
      d="
M222.000000,501.000000
	C148.349838,501.000000 74.699684,501.000000 1.024765,501.000000
	C1.024765,334.387207 1.024765,167.774399 1.024765,1.080793
	C167.575409,1.080793 334.150879,1.080793 500.863159,1.080793
	C500.863159,167.666595 500.863159,334.333282 500.863159,501.000000
	C432.234558,501.000000 363.583313,501.000000 294.585632,500.544342
	C294.239227,465.788544 294.239227,431.488434 294.239227,396.672516
	C293.159668,397.354950 292.845276,397.475616 292.637024,397.696442
	C273.495728,417.988861 251.003357,433.205719 224.760056,442.860229
	C223.462662,443.337555 222.026321,445.621490 222.014038,447.075684
	C221.862473,465.049225 221.963852,483.024872 222.000000,501.000000
M271.750275,401.264801
	C277.303009,395.519623 283.185669,390.055573 288.357574,383.985840
	C341.552979,321.555664 344.072662,231.535309 294.605865,166.173401
	C284.356171,152.630219 273.869415,139.252106 264.043365,125.406563
	C253.957047,111.194237 245.654922,96.066238 244.425125,78.068130
	C242.871017,55.324039 250.669357,31.628544 274.325897,19.457689
	C303.913940,4.235176 334.032318,6.779474 363.602905,18.992340
	C385.459015,28.019068 400.986664,45.079086 413.088593,64.794899
	C449.691071,124.425644 456.480743,188.544464 439.536041,255.593918
	C433.781250,278.365265 422.291168,298.357300 405.391266,314.941650
	C379.112518,299.921631 351.233917,311.145599 339.076691,330.837524
	C326.228729,351.648346 331.082703,379.553101 350.085999,394.261353
	C369.887451,409.587311 397.572388,407.928131 414.660065,390.207520
	C423.180298,381.371704 427.884796,370.765320 428.280823,358.366974
	C428.785645,342.562286 422.752960,329.584991 410.955597,318.995453
	C429.095184,300.508759 440.443085,278.551361 446.987946,254.050613
	C457.244720,215.654282 456.926880,176.928055 449.328125,138.202133
	C442.021667,100.966171 427.517761,66.934219 401.374084,38.814037
	C371.922913,7.136251 334.790955,-3.240597 293.488678,5.442633
	C250.363297,14.509153 229.659393,50.199196 240.248352,92.420410
	C243.996185,107.364090 251.976959,120.267998 260.890198,132.576996
	C270.262909,145.520554 280.932068,157.629135 289.311798,171.168869
	C316.687042,215.400848 322.406647,262.777618 307.459717,312.609161
	C305.241547,320.004211 304.966553,320.057251 296.560577,318.263550
	C296.560577,283.589172 296.560577,248.824753 296.560577,213.782806
	C270.773132,213.782806 245.398087,213.782806 219.641281,213.782806
	C219.641281,248.898544 219.641281,283.681396 219.641281,319.043335
	C182.531006,319.043335 145.797577,319.043335 109.176682,319.043335
	C109.176682,345.677765 109.176682,371.729034 109.176682,398.210419
	C146.143188,398.210419 182.730972,398.210419 219.591995,398.210419
	C219.591995,401.967743 219.279327,405.329376 219.671570,408.606659
	C220.155884,412.653107 218.420670,414.490814 214.854248,416.005249
	C172.301239,434.075195 129.305084,435.362915 85.919189,419.420654
	C67.984329,412.830475 51.730236,403.152130 36.875408,390.589691
	C35.744862,391.823212 34.819874,392.832489 33.844780,393.896423
	C34.840927,395.081909 35.562271,395.988983 36.336605,396.848297
	C37.116699,397.714020 37.898605,398.589294 38.766293,399.363342
	C79.148636,435.387329 126.265427,450.110504 179.900467,443.400879
	C214.601868,439.059784 244.736053,424.296661 271.750275,401.264801
M295.639496,395.757660
	C311.135376,395.757660 326.631287,395.757660 343.035645,395.757660
	C328.374084,380.879150 324.136047,363.621124 326.704010,344.191803
	C324.669037,347.636261 323.248138,350.972290 321.742767,354.269714
	C314.937714,369.175720 305.472260,382.360016 295.639496,395.757660
M336.244507,321.090790
	C335.113922,321.727417 333.306091,322.118744 332.971069,323.043579
	C331.589722,326.856812 330.655182,330.831848 329.556366,334.747437
	C332.842896,330.865265 335.544220,326.800140 338.131500,322.663635
	C338.260406,322.457581 337.398132,321.631561 336.244507,321.090790
z" />
<path fill="#05696B" opacity="1.000000" stroke="none"
      d="
M222.468658,501.000000
	C221.963852,483.024872 221.862473,465.049225 222.014038,447.075684
	C222.026321,445.621490 223.462662,443.337555 224.760056,442.860229
	C251.003357,433.205719 273.495728,417.988861 292.637024,397.696442
	C292.845276,397.475616 293.159668,397.354950 294.239227,396.672516
	C294.239227,431.488434 294.239227,465.788544 294.119629,500.544342
	C270.312439,501.000000 246.624878,501.000000 222.468658,501.000000
z" />
<path fill="#07888A" opacity="1.000000" stroke="none"
      d="
M271.484924,401.500427
	C244.736053,424.296661 214.601868,439.059784 179.900467,443.400879
	C126.265427,450.110504 79.148636,435.387329 38.766293,399.363342
	C37.898605,398.589294 37.116699,397.714020 36.336605,396.848297
	C35.562271,395.988983 34.840927,395.081909 33.844780,393.896423
	C34.819874,392.832489 35.744862,391.823212 36.875408,390.589691
	C51.730236,403.152130 67.984329,412.830475 85.919189,419.420654
	C129.305084,435.362915 172.301239,434.075195 214.854248,416.005249
	C218.420670,414.490814 220.155884,412.653107 219.671570,408.606659
	C219.279327,405.329376 219.591995,401.967743 219.591995,398.210419
	C182.730972,398.210419 146.143188,398.210419 109.176682,398.210419
	C109.176682,371.729034 109.176682,345.677765 109.176682,319.043335
	C145.797577,319.043335 182.531006,319.043335 219.641281,319.043335
	C219.641281,283.681396 219.641281,248.898544 219.641281,213.782806
	C245.398087,213.782806 270.773132,213.782806 296.560577,213.782806
	C296.560577,248.824753 296.560577,283.589172 296.560577,318.263550
	C304.966553,320.057251 305.241547,320.004211 307.459717,312.609161
	C322.406647,262.777618 316.687042,215.400848 289.311798,171.168869
	C280.932068,157.629135 270.262909,145.520554 260.890198,132.576996
	C251.976959,120.267998 243.996185,107.364090 240.248352,92.420410
	C229.659393,50.199196 250.363297,14.509153 293.488678,5.442633
	C334.790955,-3.240597 371.922913,7.136251 401.374084,38.814037
	C427.517761,66.934219 442.021667,100.966171 449.328125,138.202133
	C456.926880,176.928055 457.244720,215.654282 446.987946,254.050613
	C440.443085,278.551361 429.095184,300.508759 410.955597,318.995453
	C422.752960,329.584991 428.785645,342.562286 428.280823,358.366974
	C427.884796,370.765320 423.180298,381.371704 414.660065,390.207520
	C397.572388,407.928131 369.887451,409.587311 350.085999,394.261353
	C331.082703,379.553101 326.228729,351.648346 339.076691,330.837524
	C351.233917,311.145599 379.112518,299.921631 405.391266,314.941650
	C422.291168,298.357300 433.781250,278.365265 439.536041,255.593918
	C456.480743,188.544464 449.691071,124.425644 413.088593,64.794899
	C400.986664,45.079086 385.459015,28.019068 363.602905,18.992340
	C334.032318,6.779474 303.913940,4.235176 274.325897,19.457689
	C250.669357,31.628544 242.871017,55.324039 244.425125,78.068130
	C245.654922,96.066238 253.957047,111.194237 264.043365,125.406563
	C273.869415,139.252106 284.356171,152.630219 294.605865,166.173401
	C344.072662,231.535309 341.552979,321.555664 288.357574,383.985840
	C283.185669,390.055573 277.303009,395.519623 271.484924,401.500427
M419.294128,348.428711
	C414.196655,325.393280 391.863098,311.455627 369.866486,317.582550
	C347.369171,323.848907 334.825623,346.901184 341.976013,368.839111
	C348.354889,388.409973 368.861847,400.268768 388.459290,395.719574
	C410.057922,390.705841 422.818390,371.613098 419.294128,348.428711
z" />
<path fill="#0C6D6F" opacity="1.000000" stroke="none"
      d="
M295.458374,395.413483
	C305.472260,382.360016 314.937714,369.175720 321.742767,354.269714
	C323.248138,350.972290 324.669037,347.636261 326.704010,344.191803
	C324.136047,363.621124 328.374084,380.879150 343.035645,395.757660
	C326.631287,395.757660 311.135376,395.757660 295.458374,395.413483
z" />
<path fill="#217A7C" opacity="1.000000" stroke="none"
      d="
M336.620941,321.092468
	C337.398132,321.631561 338.260406,322.457581 338.131500,322.663635
	C335.544220,326.800140 332.842896,330.865265 329.556366,334.747437
	C330.655182,330.831848 331.589722,326.856812 332.971069,323.043579
	C333.306091,322.118744 335.113922,321.727417 336.620941,321.092468
z" />
<path fill="#F8FBFB" opacity="1.000000" stroke="none"
      d="
M419.397827,348.850830
	C422.818390,371.613098 410.057922,390.705841 388.459290,395.719574
	C368.861847,400.268768 348.354889,388.409973 341.976013,368.839111
	C334.825623,346.901184 347.369171,323.848907 369.866486,317.582550
	C391.863098,311.455627 414.196655,325.393280 419.397827,348.850830
M359.387268,379.142242
	C365.654388,384.652832 372.872925,387.382843 381.302521,387.109528
	C397.116394,386.596741 410.439972,373.427673 410.905060,357.646484
	C411.390289,341.179871 398.739166,327.061707 382.526917,325.977631
	C369.651123,325.116669 357.692444,331.938416 352.294098,343.223633
	C346.746185,354.821564 349.226105,368.206451 359.387268,379.142242
z" />
<path fill="#076A6C" opacity="1.000000" stroke="none"
      d="
M359.123291,378.900269
	C349.226105,368.206451 346.746185,354.821564 352.294098,343.223633
	C357.692444,331.938416 369.651123,325.116669 382.526917,325.977631
	C398.739166,327.061707 411.390289,341.179871 410.905060,357.646484
	C410.439972,373.427673 397.116394,386.596741 381.302521,387.109528
	C372.872925,387.382843 365.654388,384.652832 359.123291,378.900269
z" />
</svg>