<?xml version="1.0" encoding="UTF-8"?>
<svg version="1.1" xmlns="http://www.w3.org/2000/svg" width="1181" height="1181">
	<path d="M0 0 C1.41279268 -0.00307895 1.41279268 -0.00307895 2.85412663 -0.0062201 C6.02836174 -0.01190032 9.2025536 -0.01043155 12.37679291 -0.00901413 C14.66875207 -0.01159726 16.96071078 -0.01461028 19.25266886 -0.01801753 C25.56622454 -0.02609845 31.87976886 -0.02787773 38.1933291 -0.028615 C44.29982714 -0.02979149 50.40632032 -0.03659154 56.51281501 -0.04269341 C72.88520564 -0.05876229 89.25759534 -0.06466004 105.62999243 -0.06944216 C113.38687098 -0.07177967 121.14374879 -0.07538275 128.90062676 -0.07913754 C155.48585906 -0.09198084 182.07109096 -0.10269382 208.65632629 -0.10614014 C210.32586822 -0.10636177 211.99541014 -0.10658355 213.66495207 -0.10680549 C215.33844028 -0.10702613 217.01192849 -0.10724661 218.6854167 -0.10746694 C222.04246235 -0.10790947 225.399508 -0.10835659 228.75655365 -0.10880661 C230.005085 -0.1089707 230.005085 -0.1089707 231.27883921 -0.1091381 C258.19632968 -0.11275917 285.11379305 -0.12863918 312.03127316 -0.15199697 C340.5279696 -0.17667953 369.02465059 -0.19031711 397.52135801 -0.19150805 C400.65987111 -0.19167948 403.79838419 -0.1918949 406.93689728 -0.19214249 C407.70961754 -0.19219826 408.48233781 -0.19225402 409.27847384 -0.19231148 C421.63861474 -0.19345541 433.9987276 -0.20442203 446.35885908 -0.21902954 C458.82792793 -0.23350869 471.29696142 -0.23656818 483.76603639 -0.22858956 C490.50267798 -0.22456716 497.23921544 -0.22544604 503.97585106 -0.23964691 C539.11517602 -0.30946676 573.94778114 0.27634206 608.72676849 5.81892776 C609.53110321 5.94326187 610.33543793 6.06759598 611.16414642 6.19569778 C639.12512548 10.53293071 666.72146117 16.65399796 693.72676849 25.13142776 C694.37003082 25.33316605 695.01329315 25.53490433 695.67604828 25.74275589 C762.18812391 46.66419637 824.44533987 78.56718725 879.72676849 121.13142776 C880.32827728 121.59258987 880.92978607 122.05375198 881.5495224 122.5288887 C893.21081006 131.49030365 904.37832183 140.9976609 915.25020599 150.90095901 C916.64040438 152.15301466 918.03670328 153.39862832 919.45371246 154.62025833 C924.24370044 158.75188301 928.79706949 163.0547216 933.26192474 167.53377151 C933.94427689 168.21516693 934.62662903 168.89656235 935.32965851 169.59860611 C936.76021286 171.02848517 938.18952617 172.45960688 939.61763763 173.89192581 C941.78375923 176.06340488 943.95517023 178.22949102 946.12715912 180.39509964 C947.52656837 181.79516978 948.92566733 183.19555015 950.32442474 184.59627151 C950.96316025 185.23298279 951.60189575 185.86969406 952.25998688 186.52569962 C956.61224353 190.90028852 960.70797375 195.45002075 964.72676849 200.13142776 C965.68844618 201.23738536 966.65058835 202.34293949 967.61348724 203.44783401 C989.83233324 229.13739537 1010.33211099 256.45563669 1027.39473724 285.85261917 C1028.64056295 287.98394929 1029.91137791 290.09724045 1031.19551849 292.20564651 C1039.04146347 305.15455469 1045.9118852 318.6184425 1052.72676849 332.13142776 C1053.22354095 333.11417679 1053.72031342 334.09692581 1054.23213959 335.10945511 C1080.36050629 387.17652529 1097.12738249 444.48801894 1105.97676849 501.94392776 C1106.09578522 502.69711288 1106.21480194 503.450298 1106.33742523 504.22630692 C1111.76817346 538.98452094 1112.17491739 573.64138493 1112.13360155 608.740628 C1112.12930542 614.90808474 1112.13923662 621.0755069 1112.14850917 627.24295545 C1112.16800399 640.6007991 1112.17055777 653.95860361 1112.16531397 667.31645811 C1112.16073239 678.99460645 1112.16138632 690.67273944 1112.16715431 702.3508873 C1112.16791121 703.92564095 1112.16866719 705.50039459 1112.16942226 707.07514824 C1112.17056759 709.44882402 1112.17171748 711.82249979 1112.1728815 714.19617556 C1112.18355719 736.20725175 1112.18834082 758.2183229 1112.18041134 780.22940063 C1112.17996558 781.46934146 1112.17996558 781.46934146 1112.17951081 782.73433159 C1112.17706255 789.4446485 1112.17445064 796.15496534 1112.17182668 802.86528218 C1112.16170513 829.08634587 1112.17012768 855.30734562 1112.19332123 881.52840042 C1112.21940652 911.06558991 1112.23224049 940.60274097 1112.22513348 970.13994241 C1112.2244175 973.28938944 1112.22374311 976.43883649 1112.22309303 979.58828354 C1112.22292322 980.3636247 1112.22275341 981.13896587 1112.22257846 981.93780222 C1112.22027983 993.61840434 1112.2282304 1005.29897059 1112.24138451 1016.97956467 C1112.25630602 1030.25233871 1112.25712342 1043.52502879 1112.23931359 1056.79780105 C1112.23060684 1063.56435169 1112.22866221 1070.33073247 1112.24396515 1077.09727669 C1112.25781001 1083.29568679 1112.25305131 1089.49379923 1112.23372591 1095.69219211 C1112.22996548 1097.92894763 1112.23288903 1100.16572699 1112.24333756 1102.40246126 C1112.34294807 1125.36612288 1108.14308984 1143.84554204 1091.72676849 1161.13142776 C1073.57106007 1178.6417246 1053.01800501 1181.74638685 1028.95685577 1181.63263321 C1026.66522536 1181.63653124 1024.37359737 1181.64217569 1022.08197504 1181.64940411 C1015.81566196 1181.66410691 1009.5496015 1181.65400776 1003.2832967 1181.63966739 C997.20835634 1181.62967623 991.13346829 1181.63854427 985.05853026 1181.64679133 C971.86808581 1181.66394834 958.67772471 1181.65846244 945.48728201 1181.64343414 C933.92935809 1181.63035221 922.371463 1181.62519212 910.81353188 1181.6277523 C910.04510986 1181.62791272 909.27668784 1181.62807314 908.48498031 1181.62823841 C905.36499357 1181.62890209 902.24500683 1181.62960452 899.1250201 1181.63036375 C869.86591066 1181.63738435 840.60685183 1181.62191428 811.34775528 1181.59574029 C785.43184074 1181.57267929 759.51598199 1181.5672178 733.60005951 1181.57747269 C726.97478202 1181.58007532 720.34950452 1181.58266055 713.72422695 1181.58507061 C712.90823471 1181.58536806 712.09224246 1181.5856655 711.25152318 1181.58597197 C689.52817937 1181.59361904 667.80484 1181.58714475 646.08149821 1181.57637459 C643.73821317 1181.57522693 641.39492813 1181.57408376 639.05164309 1181.57294777 C637.49750125 1181.57219251 635.94335942 1181.57142686 634.3892176 1181.57065076 C622.86299109 1181.56502877 611.33677913 1181.56629799 599.8105526 1181.57087898 C586.66641595 1181.57602902 573.52233298 1181.56995155 560.37820958 1181.54998469 C553.68796335 1181.54007872 546.99781452 1181.5348953 540.30755806 1181.5428772 C452.10104566 1181.63669027 367.68853901 1168.39485384 273.72676849 1127.13142776 C272.74385834 1126.68396194 271.76094818 1126.23649612 270.74825287 1125.77547073 C255.95058059 1118.98948252 241.78062087 1111.33706415 227.72676849 1103.13142776 C226.75191498 1102.56569046 225.77706146 1101.99995316 224.77266693 1101.4170723 C214.2180518 1095.28662032 203.7449029 1089.11564013 193.72676849 1082.13142776 C192.2047342 1081.08440575 190.68258848 1080.03754571 189.16036224 1078.99080276 C174.1955557 1068.65295732 159.67415652 1057.81210997 145.72676849 1046.13142776 C145.22226166 1045.71183792 144.71775482 1045.29224808 144.1979599 1044.85994339 C136.6695817 1038.59582062 129.35922534 1032.14063743 122.18428802 1025.47566605 C120.78077605 1024.18123775 119.36146967 1022.90399923 117.94161224 1021.62752151 C111.59028912 1015.90521526 105.4696031 1009.97892592 99.41426849 1003.94392776 C98.28480804 1002.82135574 98.28480804 1002.82135574 97.13253021 1001.6761055 C93.03262442 997.56485896 89.10405602 993.36374336 85.31490326 988.96467972 C83.05540978 986.35644966 80.70383391 983.84404304 78.35176849 981.31892776 C73.23671622 975.77477507 68.44049312 970.02163572 63.72676849 964.13142776 C62.80436474 963.0005882 61.88114654 961.87041262 60.95723724 960.74080276 C37.10167474 931.44748785 16.69046849 899.31995336 -1.27323151 866.13142776 C-1.8728067 865.03435501 -2.4723819 863.93728226 -3.09012604 862.80696487 C-7.97980918 853.80372923 -12.43445149 844.65604477 -16.64823151 835.31892776 C-16.97127258 834.60499863 -17.29431366 833.89106949 -17.62714386 833.15550613 C-23.71201706 819.6735264 -29.32051035 806.07453882 -34.27323151 792.13142776 C-34.62194305 791.15103531 -34.62194305 791.15103531 -34.97769928 790.15083694 C-61.03068193 716.69343902 -69.78329254 642.62140045 -69.66540551 564.97327888 C-69.65922451 558.92822737 -69.66736426 552.88320268 -69.67484761 546.8381566 C-69.69048026 533.75199946 -69.68934381 520.66588679 -69.68061087 507.57972563 C-69.67301679 496.14231997 -69.67111607 484.70493048 -69.6746788 473.26752281 C-69.67490796 472.50419929 -69.67513711 471.74087576 -69.67537321 470.95442122 C-69.67630742 467.85489111 -69.67726265 464.755361 -69.6782525 461.65583089 C-69.68738882 432.70169367 -69.67916992 403.74758457 -69.66296181 374.7934517 C-69.64869343 349.1088135 -69.65003366 323.4242199 -69.66434479 297.73958206 C-69.68041877 268.79530803 -69.6867762 239.85105866 -69.677508 210.90678078 C-69.67654597 207.82116672 -69.67560745 204.73555265 -69.6746788 201.64993858 C-69.67444157 200.89033065 -69.67420434 200.13072272 -69.67395992 199.34809637 C-69.67055523 187.90477231 -69.67452309 176.46146618 -69.68211746 165.01814461 C-69.69070189 152.01920001 -69.68853475 139.02030629 -69.67227523 126.02136802 C-69.66425875 119.39469371 -69.66128762 112.76809001 -69.67122269 106.14141083 C-69.68018467 100.07216707 -69.67521192 94.00309763 -69.65929003 87.93386961 C-69.65594906 85.74301245 -69.65762081 83.55214045 -69.66491739 81.36129289 C-69.70954253 66.84532963 -69.56838198 52.8552539 -62.46073151 39.75642776 C-62.10672272 39.08144241 -61.75271393 38.40645706 -61.3879776 37.71101761 C-58.76639306 32.81288747 -56.00362908 28.27243116 -52.27323151 24.13142776 C-51.56811432 23.33478714 -50.86299713 22.53814651 -50.13651276 21.71736526 C-36.79608232 7.49616567 -19.40351713 -0.03917943 0 0 Z M419.69942474 244.57674026 C412.12853857 254.38141266 409.39709365 265.05956161 409.48625946 277.22409439 C409.48455061 278.09341376 409.48284176 278.96273313 409.48108113 279.85839552 C409.47780932 282.74644881 409.48875159 285.63426532 409.49971771 288.52229691 C409.50028233 290.60241566 409.49996429 292.68253482 409.4988327 294.76265335 C409.49826015 300.39214131 409.50999876 306.02154361 409.52398062 311.65101171 C409.53650417 317.54067374 409.53765976 323.43033785 409.54003143 329.32001114 C409.54624142 340.46513521 409.56264575 351.61021993 409.58273041 362.75532669 C409.60510437 375.44694502 409.61608661 388.13856526 409.62612128 400.83019841 C409.64701238 426.93062999 409.68217903 453.03102667 409.72676849 479.13142776 C408.64100682 479.12774059 407.55524515 479.12405342 406.43658161 479.12025452 C379.98611143 479.0313544 353.53566068 478.96567641 327.08507252 478.92417908 C314.29362736 478.90357656 301.50228105 478.87550004 288.71089935 478.82966995 C277.55857833 478.78973157 266.40632893 478.76397817 255.25393838 478.75507379 C249.35186564 478.74987093 243.44999773 478.73769031 237.5479908 478.70850754 C231.98547666 478.68122791 226.42325049 478.6730081 220.86067581 478.67899704 C218.8262354 478.6779024 216.79178471 478.67002378 214.75740242 478.65460587 C200.28542294 478.55036672 187.00055508 478.8303794 175.72676849 489.13142776 C175.12348724 489.63287308 174.52020599 490.13431839 173.89864349 490.65095901 C167.77848494 496.11918764 163.31246688 504.0480128 161.72676849 512.13142776 C161.62906432 514.2521868 161.58755728 516.37575904 161.57959747 518.49875259 C161.57244217 519.80937668 161.56528687 521.12000076 161.55791473 522.47034073 C161.5550746 523.92125297 161.55236285 525.37216546 161.54976654 526.82307816 C161.54349923 528.35260039 161.53685219 529.8821211 161.52985382 531.41164017 C161.50883705 536.43411072 161.49845141 541.45658148 161.48848724 546.47908401 C161.48443834 548.21111886 161.48032137 549.94315354 161.47613716 551.67518806 C161.45708813 559.81611591 161.44285834 567.95703472 161.43452519 576.09798056 C161.42476342 585.47859118 161.39847049 594.85896518 161.3580243 604.23949248 C161.32779962 611.49998419 161.31305018 618.76040833 161.30974418 626.0209617 C161.3074003 630.35238079 161.29852701 634.68354701 161.273283 639.0148983 C161.24988674 643.09518472 161.24581503 647.17505388 161.25604439 651.25539017 C161.25653712 652.74562791 161.2502949 654.235887 161.23648834 655.72606087 C161.12730771 668.21829838 163.03456763 678.70684634 171.72676849 688.13142776 C180.48183529 696.98395357 189.53552501 702.0018974 202.14508152 702.37752342 C203.71583335 702.38579271 205.28666718 702.38339414 206.85739899 702.3719368 C208.16750337 702.37450007 208.16750337 702.37450007 209.50407451 702.37711513 C212.40594692 702.38038717 215.30758371 702.36944428 218.20943451 702.35847855 C220.29940536 702.35791394 222.38937661 702.35823196 224.47934723 702.35936356 C230.13569367 702.35993613 235.79195486 702.3481972 241.44828153 702.33421564 C247.3659708 702.32169242 253.28366213 702.32053652 259.20136261 702.31816483 C270.39961054 702.31195474 281.59781931 702.29555028 292.79605001 702.27546585 C305.54812671 702.25309219 318.30020531 702.24210972 331.05229676 702.23207498 C357.27714236 702.21118366 383.50195323 702.17601683 409.72676849 702.13142776 C409.72400311 703.20780376 409.72123774 704.28417976 409.71838856 705.39317322 C409.65172657 731.6096412 409.60246115 757.82609816 409.57133198 784.04263306 C409.5558772 796.72086224 409.53481419 809.39903535 409.50045013 822.07722855 C409.47050531 833.13029018 409.4511834 844.18331121 409.44450301 855.23641229 C409.44059938 861.08643514 409.43145415 866.93634182 409.40957832 872.78632736 C409.38913292 878.29873828 409.38295096 883.81098578 409.38744545 889.32343102 C409.38662385 891.34054644 409.38070645 893.35766764 409.36915207 895.37475014 C409.27719631 912.26399087 410.46076805 926.32852083 422.35176849 939.38142776 C434.32723166 950.62834564 449.21250977 951.44057696 464.84200287 951.39021683 C466.21344945 951.39293451 467.58489456 951.39649977 468.95633698 951.40083694 C472.64436816 951.40987087 476.33228609 951.40645429 480.02031898 951.40007877 C483.90241143 951.39497172 487.78449496 951.39972318 491.66658783 951.4028511 C498.18259652 951.40647715 504.6985597 951.40172755 511.21456146 951.39216995 C518.71951811 951.38128803 526.22436603 951.38481458 533.72932005 951.39582276 C540.20359071 951.40493461 546.67782889 951.40616195 553.1521039 951.40094543 C557.00547597 951.39784706 560.85879715 951.39735706 564.71216583 951.4040184 C568.33695943 951.4098483 571.96161453 951.40569322 575.58639336 951.39422989 C577.53058819 951.39037723 579.4747949 951.39622048 581.41898346 951.40248489 C596.70646972 951.32976247 610.48450672 948.97883755 621.98067474 938.10408401 C633.23718078 925.38700225 633.15760731 911.39840957 633.06734467 895.35164261 C633.06649759 893.24182014 633.0669751 891.13199679 633.06867218 889.02217484 C633.06953043 883.31625923 633.05193214 877.61053408 633.03095031 871.90466261 C633.01215516 865.93359952 633.01043083 859.96253174 633.00687408 853.99144363 C632.99756197 842.69404114 632.97295941 831.39672607 632.94282562 820.09936202 C632.9092557 807.23360728 632.89278907 794.3678483 632.87773931 781.50206065 C632.84640916 755.04513461 632.79366483 728.5882861 632.72676849 702.13142776 C633.81253016 702.13511494 634.89829184 702.13880211 636.01695538 702.14260101 C662.46742556 702.23150113 688.91787631 702.29717912 715.36846447 702.33867645 C728.15990963 702.35927897 740.95125593 702.38735549 753.74263763 702.43318558 C764.89495865 702.47312396 776.04720806 702.49887736 787.19959861 702.50778174 C793.10167135 702.5129846 799.00353926 702.52516522 804.90554619 702.55434799 C810.46806032 702.58162762 816.0302865 702.58984743 821.59286118 702.58385849 C823.62730159 702.58495313 825.66175228 702.59283174 827.69613457 702.60824966 C843.75402913 702.72391188 857.36267353 701.63022837 869.72676849 690.13142776 C875.07470865 684.11832092 878.92846966 678.00827389 880.72676849 670.13142776 C880.89862041 669.39126986 881.07047234 668.65111195 881.24753189 667.88852501 C881.77446109 664.85704737 881.85873395 662.02473041 881.86721039 658.94755936 C881.87292053 657.70287384 881.87863068 656.45818832 881.88451385 655.17578506 C881.88575907 653.8040658 881.88688419 652.43234643 881.88790131 651.06062698 C881.89253293 649.60977427 881.89755806 648.15892276 881.90294647 646.70807266 C881.91604187 642.77180573 881.92251019 638.83555584 881.92695713 634.89927053 C881.92989332 632.43626014 881.93399922 629.97325435 881.9384613 627.51024628 C881.95213056 619.79326426 881.96179923 612.07629282 881.96566319 604.35929954 C881.97013849 595.471713 881.98766416 586.58428066 882.01666379 577.69674098 C882.03833623 570.81414412 882.04837048 563.93159045 882.04970431 557.04895985 C882.05074864 552.94452103 882.05657635 548.84022727 882.07452393 544.73582458 C882.09110045 540.86979335 882.09311411 537.00401472 882.08438492 533.13796043 C882.08361956 531.7267444 882.08789039 530.31551425 882.09784317 528.90433311 C882.19740776 513.89506477 879.39007971 501.39223277 868.98848724 490.24080276 C856.32284471 478.42828641 841.19458558 478.69872573 824.92525482 478.79085159 C822.82513694 478.79169885 820.72501818 478.79122081 818.62490082 478.78952408 C812.95003462 478.78866654 807.27536028 478.80625327 801.60053849 478.82724595 C795.66017786 478.846053 789.71981239 478.84776636 783.77942657 478.85132217 C772.54226426 478.86063081 761.30518994 478.88522862 750.0680663 478.91537064 C737.2700018 478.94895143 724.47193301 478.96540991 711.6738354 478.98045695 C685.35809772 479.01177921 659.04243805 479.06451673 632.72676849 479.13142776 C632.73045567 478.03959057 632.73414284 476.94775337 632.73794174 475.8228302 C632.82682099 449.23084218 632.89250997 422.63887348 632.93401718 396.04676819 C632.95462433 383.18691344 632.98270976 370.32715694 633.02852631 357.46736526 C633.06845045 346.25609019 633.09421473 335.04488629 633.10312247 323.83354211 C633.10832773 317.89964374 633.12052376 311.96594894 633.14968872 306.03211594 C633.17694579 300.44087815 633.18519265 294.84992677 633.17919922 289.25862885 C633.18029485 287.21248058 633.18818702 285.16632221 633.20359039 283.12023163 C633.31246506 267.90483767 632.25050502 255.08456945 621.72676849 243.13142776 C609.1539499 231.35006358 596.05233875 229.8205739 579.32613373 229.8726387 C577.9121813 229.86992221 576.4982303 229.86635761 575.08428192 229.86201859 C571.27649617 229.85297135 567.46881989 229.85640665 563.66103244 229.86277676 C559.65788166 229.86787577 555.65473963 229.86313463 551.65158844 229.86000443 C544.93289779 229.8563765 538.21425126 229.86113341 531.49556732 229.87068558 C523.7491771 229.8815723 516.00289216 229.87803823 508.25650448 229.86703277 C501.58101329 229.85793165 494.90555364 229.85668826 488.23005825 229.8619101 C484.25377463 229.86501374 480.27754036 229.86548355 476.30125999 229.85883713 C472.56239945 229.85302286 468.82367356 229.8571345 465.08482742 229.86862564 C463.07344239 229.87249364 461.06204585 229.86662186 459.05066681 229.86037064 C443.74718307 229.93123533 430.49526601 232.93839233 419.69942474 244.57674026 Z " fill="#61C3DE" transform="translate(69.27323150634766,-0.13142776489257813)"/>
</svg>
